<mxfile host="Electron" agent="Mozilla/5.0 (Windows NT 10.0; Win64; x64) AppleWebKit/537.36 (KHTML, like Gecko) draw.io/25.0.2 Chrome/128.0.6613.186 Electron/32.2.5 Safari/537.36" version="25.0.2">
  <diagram name="Страница — 1" id="PD7nIXChhI9BJC8aCGpo">
    <mxGraphModel dx="1219" dy="835" grid="1" gridSize="10" guides="1" tooltips="1" connect="1" arrows="1" fold="1" page="1" pageScale="1" pageWidth="827" pageHeight="1169" math="0" shadow="0">
      <root>
        <mxCell id="0" />
        <mxCell id="1" parent="0" />
        <mxCell id="Q98MzMo1md-TgH_pl_vJ-3" style="edgeStyle=orthogonalEdgeStyle;rounded=0;orthogonalLoop=1;jettySize=auto;html=1;exitX=0.5;exitY=1;exitDx=0;exitDy=0;entryX=0.5;entryY=0;entryDx=0;entryDy=0;" edge="1" parent="1" source="Q98MzMo1md-TgH_pl_vJ-1" target="Q98MzMo1md-TgH_pl_vJ-2">
          <mxGeometry relative="1" as="geometry" />
        </mxCell>
        <mxCell id="Q98MzMo1md-TgH_pl_vJ-1" value="начало" style="ellipse;whiteSpace=wrap;html=1;" vertex="1" parent="1">
          <mxGeometry x="360" width="80" height="40" as="geometry" />
        </mxCell>
        <mxCell id="Q98MzMo1md-TgH_pl_vJ-5" style="edgeStyle=orthogonalEdgeStyle;rounded=0;orthogonalLoop=1;jettySize=auto;html=1;exitX=0.5;exitY=1;exitDx=0;exitDy=0;entryX=0.5;entryY=0;entryDx=0;entryDy=0;" edge="1" parent="1" source="Q98MzMo1md-TgH_pl_vJ-2" target="Q98MzMo1md-TgH_pl_vJ-4">
          <mxGeometry relative="1" as="geometry" />
        </mxCell>
        <mxCell id="Q98MzMo1md-TgH_pl_vJ-2" value="int main()" style="shape=process;whiteSpace=wrap;html=1;backgroundOutline=1;" vertex="1" parent="1">
          <mxGeometry x="355" y="60" width="90" height="30" as="geometry" />
        </mxCell>
        <mxCell id="Q98MzMo1md-TgH_pl_vJ-7" style="edgeStyle=orthogonalEdgeStyle;rounded=0;orthogonalLoop=1;jettySize=auto;html=1;exitX=0.5;exitY=1;exitDx=0;exitDy=0;entryX=0.5;entryY=0;entryDx=0;entryDy=0;" edge="1" parent="1" source="Q98MzMo1md-TgH_pl_vJ-4" target="Q98MzMo1md-TgH_pl_vJ-6">
          <mxGeometry relative="1" as="geometry" />
        </mxCell>
        <mxCell id="Q98MzMo1md-TgH_pl_vJ-4" value="setlocale(LC_ALL, &quot;ru&quot;);" style="whiteSpace=wrap;html=1;" vertex="1" parent="1">
          <mxGeometry x="350" y="110" width="100" height="40" as="geometry" />
        </mxCell>
        <mxCell id="Q98MzMo1md-TgH_pl_vJ-9" style="edgeStyle=orthogonalEdgeStyle;rounded=0;orthogonalLoop=1;jettySize=auto;html=1;exitX=0.5;exitY=1;exitDx=0;exitDy=0;entryX=0.5;entryY=0;entryDx=0;entryDy=0;" edge="1" parent="1" source="Q98MzMo1md-TgH_pl_vJ-6" target="Q98MzMo1md-TgH_pl_vJ-8">
          <mxGeometry relative="1" as="geometry" />
        </mxCell>
        <mxCell id="Q98MzMo1md-TgH_pl_vJ-6" value="&lt;div&gt;Pair pair1(1, 2);&lt;/div&gt;&lt;div&gt;pair1.Show();&lt;/div&gt;&lt;div&gt;Pair pair2 = make_pair(3, 4);&lt;/div&gt;&lt;div&gt;pair2.Show();&lt;/div&gt;&lt;div&gt;&lt;span style=&quot;background-color: initial;&quot;&gt;Pair pair3;&lt;/span&gt;&lt;br&gt;&lt;/div&gt;&lt;div&gt;pair3.Read();&lt;/div&gt;&lt;div&gt;pair3.Show();&lt;/div&gt;" style="whiteSpace=wrap;html=1;" vertex="1" parent="1">
          <mxGeometry x="320" y="170" width="160" height="100" as="geometry" />
        </mxCell>
        <mxCell id="Q98MzMo1md-TgH_pl_vJ-14" style="edgeStyle=orthogonalEdgeStyle;rounded=0;orthogonalLoop=1;jettySize=auto;html=1;exitX=0.5;exitY=1;exitDx=0;exitDy=0;entryX=0.5;entryY=0;entryDx=0;entryDy=0;" edge="1" parent="1" source="Q98MzMo1md-TgH_pl_vJ-8" target="Q98MzMo1md-TgH_pl_vJ-10">
          <mxGeometry relative="1" as="geometry" />
        </mxCell>
        <mxCell id="Q98MzMo1md-TgH_pl_vJ-8" value="&lt;div&gt;&amp;nbsp;const int size = 5;&lt;/div&gt;&lt;div&gt;&amp;nbsp;Pair pairs[size];&lt;/div&gt;" style="whiteSpace=wrap;html=1;" vertex="1" parent="1">
          <mxGeometry x="340" y="290" width="120" height="60" as="geometry" />
        </mxCell>
        <mxCell id="Q98MzMo1md-TgH_pl_vJ-12" style="edgeStyle=orthogonalEdgeStyle;rounded=0;orthogonalLoop=1;jettySize=auto;html=1;exitX=0.5;exitY=1;exitDx=0;exitDy=0;entryX=0.5;entryY=0;entryDx=0;entryDy=0;" edge="1" parent="1" source="Q98MzMo1md-TgH_pl_vJ-10" target="Q98MzMo1md-TgH_pl_vJ-11">
          <mxGeometry relative="1" as="geometry" />
        </mxCell>
        <mxCell id="Q98MzMo1md-TgH_pl_vJ-15" style="edgeStyle=orthogonalEdgeStyle;rounded=0;orthogonalLoop=1;jettySize=auto;html=1;exitX=1;exitY=0.5;exitDx=0;exitDy=0;" edge="1" parent="1" source="Q98MzMo1md-TgH_pl_vJ-10">
          <mxGeometry relative="1" as="geometry">
            <mxPoint x="560" y="440" as="targetPoint" />
          </mxGeometry>
        </mxCell>
        <mxCell id="Q98MzMo1md-TgH_pl_vJ-10" value="for (int i = 0; i &amp;lt; size; ++i)" style="shape=hexagon;perimeter=hexagonPerimeter2;whiteSpace=wrap;html=1;fixedSize=1;" vertex="1" parent="1">
          <mxGeometry x="335" y="370" width="130" height="40" as="geometry" />
        </mxCell>
        <mxCell id="Q98MzMo1md-TgH_pl_vJ-13" style="edgeStyle=orthogonalEdgeStyle;rounded=0;orthogonalLoop=1;jettySize=auto;html=1;exitX=0.5;exitY=1;exitDx=0;exitDy=0;entryX=0;entryY=0.5;entryDx=0;entryDy=0;" edge="1" parent="1" source="Q98MzMo1md-TgH_pl_vJ-11" target="Q98MzMo1md-TgH_pl_vJ-10">
          <mxGeometry relative="1" as="geometry" />
        </mxCell>
        <mxCell id="Q98MzMo1md-TgH_pl_vJ-11" value="&lt;div&gt;pairs[i] = Pair(i, i + 1);&lt;/div&gt;&lt;div&gt;pairs[i].Show();&lt;/div&gt;" style="whiteSpace=wrap;html=1;" vertex="1" parent="1">
          <mxGeometry x="340" y="430" width="120" height="30" as="geometry" />
        </mxCell>
        <mxCell id="Q98MzMo1md-TgH_pl_vJ-16" value="return 0;" style="ellipse;whiteSpace=wrap;html=1;" vertex="1" parent="1">
          <mxGeometry x="520" y="440" width="80" height="40" as="geometry" />
        </mxCell>
        <mxCell id="Q98MzMo1md-TgH_pl_vJ-17" value="" style="endArrow=none;dashed=1;html=1;rounded=0;" edge="1" parent="1">
          <mxGeometry width="50" height="50" relative="1" as="geometry">
            <mxPoint x="400" y="50" as="sourcePoint" />
            <mxPoint x="600" y="50" as="targetPoint" />
          </mxGeometry>
        </mxCell>
        <mxCell id="Q98MzMo1md-TgH_pl_vJ-18" value="" style="endArrow=none;html=1;rounded=0;" edge="1" parent="1">
          <mxGeometry width="50" height="50" relative="1" as="geometry">
            <mxPoint x="600" y="80" as="sourcePoint" />
            <mxPoint x="600" y="10" as="targetPoint" />
          </mxGeometry>
        </mxCell>
        <mxCell id="Q98MzMo1md-TgH_pl_vJ-19" value="" style="endArrow=none;html=1;rounded=0;" edge="1" parent="1">
          <mxGeometry width="50" height="50" relative="1" as="geometry">
            <mxPoint x="690" y="10" as="sourcePoint" />
            <mxPoint x="600" y="10" as="targetPoint" />
          </mxGeometry>
        </mxCell>
        <mxCell id="Q98MzMo1md-TgH_pl_vJ-20" value="&lt;div&gt;#include &amp;lt;iostream&amp;gt;&lt;/div&gt;&lt;div&gt;#include &quot;Pair.h&quot;&lt;/div&gt;" style="text;html=1;align=center;verticalAlign=middle;resizable=0;points=[];autosize=1;strokeColor=none;fillColor=none;" vertex="1" parent="1">
          <mxGeometry x="595" y="10" width="130" height="40" as="geometry" />
        </mxCell>
        <mxCell id="Q98MzMo1md-TgH_pl_vJ-23" style="edgeStyle=orthogonalEdgeStyle;rounded=0;orthogonalLoop=1;jettySize=auto;html=1;exitX=0.5;exitY=1;exitDx=0;exitDy=0;entryX=0.5;entryY=0;entryDx=0;entryDy=0;" edge="1" parent="1" source="Q98MzMo1md-TgH_pl_vJ-21" target="Q98MzMo1md-TgH_pl_vJ-22">
          <mxGeometry relative="1" as="geometry" />
        </mxCell>
        <mxCell id="Q98MzMo1md-TgH_pl_vJ-21" value="Pair::Pair(double first, double second)" style="whiteSpace=wrap;html=1;" vertex="1" parent="1">
          <mxGeometry x="335" y="650" width="130" height="40" as="geometry" />
        </mxCell>
        <mxCell id="Q98MzMo1md-TgH_pl_vJ-22" value="Init(first, second);" style="whiteSpace=wrap;html=1;" vertex="1" parent="1">
          <mxGeometry x="342.5" y="710" width="115" height="20" as="geometry" />
        </mxCell>
        <mxCell id="Q98MzMo1md-TgH_pl_vJ-27" style="edgeStyle=orthogonalEdgeStyle;rounded=0;orthogonalLoop=1;jettySize=auto;html=1;exitX=0.5;exitY=1;exitDx=0;exitDy=0;entryX=0.5;entryY=0;entryDx=0;entryDy=0;" edge="1" parent="1" source="Q98MzMo1md-TgH_pl_vJ-24" target="Q98MzMo1md-TgH_pl_vJ-25">
          <mxGeometry relative="1" as="geometry" />
        </mxCell>
        <mxCell id="Q98MzMo1md-TgH_pl_vJ-24" value="void Pair::Init(double first, double second)" style="whiteSpace=wrap;html=1;" vertex="1" parent="1">
          <mxGeometry x="620" y="650" width="120" height="60" as="geometry" />
        </mxCell>
        <mxCell id="Q98MzMo1md-TgH_pl_vJ-29" style="edgeStyle=orthogonalEdgeStyle;rounded=0;orthogonalLoop=1;jettySize=auto;html=1;exitX=0.5;exitY=1;exitDx=0;exitDy=0;entryX=0.5;entryY=0;entryDx=0;entryDy=0;" edge="1" parent="1" source="Q98MzMo1md-TgH_pl_vJ-25" target="Q98MzMo1md-TgH_pl_vJ-28">
          <mxGeometry relative="1" as="geometry" />
        </mxCell>
        <mxCell id="Q98MzMo1md-TgH_pl_vJ-25" value="&lt;div&gt;this-&amp;gt;first = first;&lt;/div&gt;&lt;div&gt;this-&amp;gt;second = second;&lt;/div&gt;" style="whiteSpace=wrap;html=1;" vertex="1" parent="1">
          <mxGeometry x="620" y="730" width="120" height="40" as="geometry" />
        </mxCell>
        <mxCell id="Q98MzMo1md-TgH_pl_vJ-28" value="return;" style="ellipse;whiteSpace=wrap;html=1;" vertex="1" parent="1">
          <mxGeometry x="640" y="800" width="80" height="40" as="geometry" />
        </mxCell>
        <mxCell id="Q98MzMo1md-TgH_pl_vJ-32" style="edgeStyle=orthogonalEdgeStyle;rounded=0;orthogonalLoop=1;jettySize=auto;html=1;exitX=0.5;exitY=1;exitDx=0;exitDy=0;entryX=0.5;entryY=0;entryDx=0;entryDy=0;" edge="1" parent="1" source="Q98MzMo1md-TgH_pl_vJ-30" target="Q98MzMo1md-TgH_pl_vJ-31">
          <mxGeometry relative="1" as="geometry" />
        </mxCell>
        <mxCell id="Q98MzMo1md-TgH_pl_vJ-30" value="void Pair::Read()" style="whiteSpace=wrap;html=1;" vertex="1" parent="1">
          <mxGeometry x="898.5" y="640" width="123" height="30" as="geometry" />
        </mxCell>
        <mxCell id="Q98MzMo1md-TgH_pl_vJ-35" style="edgeStyle=orthogonalEdgeStyle;rounded=0;orthogonalLoop=1;jettySize=auto;html=1;exitX=0.5;exitY=1;exitDx=0;exitDy=0;entryX=0.5;entryY=0;entryDx=0;entryDy=0;" edge="1" parent="1" source="Q98MzMo1md-TgH_pl_vJ-31" target="Q98MzMo1md-TgH_pl_vJ-33">
          <mxGeometry relative="1" as="geometry" />
        </mxCell>
        <mxCell id="Q98MzMo1md-TgH_pl_vJ-31" value="std::cout &amp;lt;&amp;lt; &quot;Введите первое значение: &quot;;" style="shape=parallelogram;perimeter=parallelogramPerimeter;whiteSpace=wrap;html=1;fixedSize=1;" vertex="1" parent="1">
          <mxGeometry x="860" y="690" width="200" height="30" as="geometry" />
        </mxCell>
        <mxCell id="Q98MzMo1md-TgH_pl_vJ-37" style="edgeStyle=orthogonalEdgeStyle;rounded=0;orthogonalLoop=1;jettySize=auto;html=1;exitX=0.5;exitY=1;exitDx=0;exitDy=0;entryX=0.5;entryY=0;entryDx=0;entryDy=0;" edge="1" parent="1" source="Q98MzMo1md-TgH_pl_vJ-33" target="Q98MzMo1md-TgH_pl_vJ-36">
          <mxGeometry relative="1" as="geometry" />
        </mxCell>
        <mxCell id="Q98MzMo1md-TgH_pl_vJ-33" value="std::cin &amp;gt;&amp;gt; first;" style="shape=parallelogram;perimeter=parallelogramPerimeter;whiteSpace=wrap;html=1;fixedSize=1;" vertex="1" parent="1">
          <mxGeometry x="900" y="740" width="120" height="30" as="geometry" />
        </mxCell>
        <mxCell id="Q98MzMo1md-TgH_pl_vJ-42" style="edgeStyle=orthogonalEdgeStyle;rounded=0;orthogonalLoop=1;jettySize=auto;html=1;exitX=0.5;exitY=1;exitDx=0;exitDy=0;entryX=0.5;entryY=0;entryDx=0;entryDy=0;" edge="1" parent="1" source="Q98MzMo1md-TgH_pl_vJ-36" target="Q98MzMo1md-TgH_pl_vJ-38">
          <mxGeometry relative="1" as="geometry" />
        </mxCell>
        <mxCell id="Q98MzMo1md-TgH_pl_vJ-36" value="std::cout &amp;lt;&amp;lt; &quot;Введите второе значение: &quot;;" style="shape=parallelogram;perimeter=parallelogramPerimeter;whiteSpace=wrap;html=1;fixedSize=1;" vertex="1" parent="1">
          <mxGeometry x="885" y="790" width="150" height="40" as="geometry" />
        </mxCell>
        <mxCell id="Q98MzMo1md-TgH_pl_vJ-41" style="edgeStyle=orthogonalEdgeStyle;rounded=0;orthogonalLoop=1;jettySize=auto;html=1;exitX=0.5;exitY=1;exitDx=0;exitDy=0;entryX=0.5;entryY=0;entryDx=0;entryDy=0;" edge="1" parent="1" source="Q98MzMo1md-TgH_pl_vJ-38" target="Q98MzMo1md-TgH_pl_vJ-39">
          <mxGeometry relative="1" as="geometry" />
        </mxCell>
        <mxCell id="Q98MzMo1md-TgH_pl_vJ-38" value="std::cin &amp;gt;&amp;gt; second;" style="shape=parallelogram;perimeter=parallelogramPerimeter;whiteSpace=wrap;html=1;fixedSize=1;" vertex="1" parent="1">
          <mxGeometry x="898.5" y="850" width="121.5" height="40" as="geometry" />
        </mxCell>
        <mxCell id="Q98MzMo1md-TgH_pl_vJ-39" value="&amp;nbsp;Init(first, second);" style="whiteSpace=wrap;html=1;" vertex="1" parent="1">
          <mxGeometry x="900" y="910" width="120" height="40" as="geometry" />
        </mxCell>
        <mxCell id="Q98MzMo1md-TgH_pl_vJ-45" style="edgeStyle=orthogonalEdgeStyle;rounded=0;orthogonalLoop=1;jettySize=auto;html=1;exitX=0.5;exitY=1;exitDx=0;exitDy=0;entryX=0.5;entryY=0;entryDx=0;entryDy=0;" edge="1" parent="1" source="Q98MzMo1md-TgH_pl_vJ-43" target="Q98MzMo1md-TgH_pl_vJ-44">
          <mxGeometry relative="1" as="geometry" />
        </mxCell>
        <mxCell id="Q98MzMo1md-TgH_pl_vJ-43" value="void Pair::Show()" style="whiteSpace=wrap;html=1;" vertex="1" parent="1">
          <mxGeometry x="330" y="810" width="120" height="60" as="geometry" />
        </mxCell>
        <mxCell id="Q98MzMo1md-TgH_pl_vJ-44" value="std::cout &amp;lt;&amp;lt; &quot;Pair: (&quot; &amp;lt;&amp;lt; first &amp;lt;&amp;lt; &quot;, &quot; &amp;lt;&amp;lt; second &amp;lt;&amp;lt; &quot;)&quot; &amp;lt;&amp;lt; std::endl;" style="shape=parallelogram;perimeter=parallelogramPerimeter;whiteSpace=wrap;html=1;fixedSize=1;" vertex="1" parent="1">
          <mxGeometry x="205" y="900" width="370" height="30" as="geometry" />
        </mxCell>
        <mxCell id="Q98MzMo1md-TgH_pl_vJ-48" style="edgeStyle=orthogonalEdgeStyle;rounded=0;orthogonalLoop=1;jettySize=auto;html=1;exitX=0.5;exitY=1;exitDx=0;exitDy=0;entryX=0.5;entryY=0;entryDx=0;entryDy=0;" edge="1" parent="1" source="Q98MzMo1md-TgH_pl_vJ-46" target="Q98MzMo1md-TgH_pl_vJ-47">
          <mxGeometry relative="1" as="geometry" />
        </mxCell>
        <mxCell id="Q98MzMo1md-TgH_pl_vJ-46" value="Pair make_pair(double first, double second)" style="whiteSpace=wrap;html=1;" vertex="1" parent="1">
          <mxGeometry x="650" y="960" width="140" height="30" as="geometry" />
        </mxCell>
        <mxCell id="Q98MzMo1md-TgH_pl_vJ-47" value="return Pair(first, second);" style="ellipse;whiteSpace=wrap;html=1;" vertex="1" parent="1">
          <mxGeometry x="660" y="1020" width="120" height="40" as="geometry" />
        </mxCell>
      </root>
    </mxGraphModel>
  </diagram>
</mxfile>
